Jost-400-Book.ufo
<glyph name="ampersand" format="1">
  <advance width="675"/>
  <unicode hex="0026"/>
  <outline>
    <contour>
      <point x="223" y="384" type="line" smooth="yes"/>
      <point x="190" y="422"/>
      <point x="117" y="479"/>
      <point x="117" y="556" type="curve" smooth="yes"/>
      <point x="117" y="650"/>
      <point x="188" y="711"/>
      <point x="288" y="711" type="curve" smooth="yes"/>
      <point x="393" y="711"/>
      <point x="456" y="638"/>
      <point x="456" y="554" type="curve" smooth="yes"/>
      <point x="456" y="487"/>
      <point x="402" y="425"/>
      <point x="309" y="370" type="curve" smooth="yes"/>
      <point x="236" y="327"/>
      <point x="125" y="288"/>
      <point x="125" y="188" type="curve" smooth="yes"/>
      <point x="125" y="112"/>
      <point x="190" y="64"/>
      <point x="270" y="64" type="curve" smooth="yes"/>
      <point x="397" y="64"/>
      <point x="507" y="186"/>
      <point x="602" y="316" type="curve"/>
      <point x="664" y="277" type="line"/>
      <point x="558" y="137"/>
      <point x="444" y="-10"/>
      <point x="265" y="-10" type="curve" smooth="yes"/>
      <point x="150" y="-10"/>
      <point x="40" y="64"/>
      <point x="40" y="183" type="curve" smooth="yes"/>
      <point x="40" y="330"/>
      <point x="186" y="379"/>
      <point x="254" y="417" type="curve" smooth="yes"/>
      <point x="329" y="459"/>
      <point x="375" y="508"/>
      <point x="375" y="554" type="curve" smooth="yes"/>
      <point x="375" y="605"/>
      <point x="343" y="640"/>
      <point x="288" y="640" type="curve" smooth="yes"/>
      <point x="233" y="640"/>
      <point x="201" y="607"/>
      <point x="201" y="556" type="curve" smooth="yes"/>
      <point x="201" y="510"/>
      <point x="245" y="471"/>
      <point x="285" y="425" type="curve" smooth="yes"/>
      <point x="655" y="0" type="line"/>
      <point x="559" y="0" type="line"/>
    </contour>
  </outline>
</glyph>
<glyph name="zero" format="1">
  <advance width="600"/>
  <unicode hex="0030"/>
  <outline>
    <contour>
      <point x="125" y="350" type="curve" smooth="yes"/>
      <point x="125" y="187"/>
      <point x="192" y="70"/>
      <point x="300" y="70" type="curve" smooth="yes"/>
      <point x="408" y="70"/>
      <point x="475" y="187"/>
      <point x="475" y="350" type="curve" smooth="yes"/>
      <point x="475" y="513"/>
      <point x="408" y="630"/>
      <point x="300" y="630" type="curve" smooth="yes"/>
      <point x="192" y="630"/>
      <point x="125" y="513"/>
    </contour>
    <contour>
      <point x="40" y="350" type="curve" smooth="yes"/>
      <point x="40" y="559"/>
      <point x="146" y="710"/>
      <point x="300" y="710" type="curve" smooth="yes"/>
      <point x="454" y="710"/>
      <point x="560" y="559"/>
      <point x="560" y="350" type="curve" smooth="yes"/>
      <point x="560" y="141"/>
      <point x="454" y="-10"/>
      <point x="300" y="-10" type="curve" smooth="yes"/>
      <point x="146" y="-10"/>
      <point x="40" y="141"/>
    </contour>
  </outline>
</glyph>
<glyph name="two" format="1">
  <advance width="569"/>
  <unicode hex="0032"/>
  <outline>
    <contour>
      <point x="20" y="0" type="line"/>
      <point x="351" y="353" type="line" smooth="yes"/>
      <point x="397" y="402"/>
      <point x="424" y="450"/>
      <point x="424" y="506" type="curve" smooth="yes"/>
      <point x="424" y="567"/>
      <point x="382" y="631"/>
      <point x="297" y="631" type="curve" smooth="yes"/>
      <point x="207" y="631"/>
      <point x="145" y="566"/>
      <point x="145" y="460" type="curve"/>
      <point x="60" y="460" type="line"/>
      <point x="60" y="609"/>
      <point x="152" y="711"/>
      <point x="297" y="711" type="curve" smooth="yes"/>
      <point x="451" y="711"/>
      <point x="511" y="593"/>
      <point x="511" y="499" type="curve" smooth="yes"/>
      <point x="511" y="427"/>
      <point x="473" y="363"/>
      <point x="418" y="307" type="curve" smooth="yes"/>
      <point x="195" y="80" type="line"/>
      <point x="514" y="80" type="line"/>
      <point x="514" y="0" type="line"/>
    </contour>
  </outline>
</glyph>
<glyph name="five" format="1">
  <advance width="564"/>
  <unicode hex="0035"/>
  <outline>
    <contour>
      <point x="524" y="230" type="curve" smooth="yes"/>
      <point x="524" y="71"/>
      <point x="414" y="-10"/>
      <point x="279" y="-10" type="curve" smooth="yes"/>
      <point x="150" y="-10"/>
      <point x="76" y="57"/>
      <point x="30" y="137" type="curve"/>
      <point x="102" y="186" type="line"/>
      <point x="133" y="126"/>
      <point x="202" y="70"/>
      <point x="279" y="70" type="curve" smooth="yes"/>
      <point x="379" y="70"/>
      <point x="436" y="134"/>
      <point x="436" y="230" type="curve" smooth="yes"/>
      <point x="436" y="326"/>
      <point x="369" y="390"/>
      <point x="279" y="390" type="curve" smooth="yes"/>
      <point x="212" y="390"/>
      <point x="171" y="377"/>
      <point x="100" y="327" type="curve"/>
      <point x="192" y="700" type="line"/>
      <point x="522" y="700" type="line"/>
      <point x="522" y="625" type="line"/>
      <point x="258" y="625" type="line"/>
      <point x="211" y="440" type="line"/>
      <point x="244" y="457"/>
      <point x="280" y="466"/>
      <point x="315" y="466" type="curve" smooth="yes"/>
      <point x="435" y="466"/>
      <point x="524" y="369"/>
    </contour>
  </outline>
</glyph>
<glyph name="eight" format="1">
  <advance width="546"/>
  <unicode hex="0038"/>
  <outline>
    <contour>
      <point x="80" y="531" type="curve" smooth="yes"/>
      <point x="80" y="630"/>
      <point x="163" y="710"/>
      <point x="273" y="710" type="curve" smooth="yes"/>
      <point x="383" y="710"/>
      <point x="466" y="630"/>
      <point x="466" y="531" type="curve" smooth="yes"/>
      <point x="466" y="422"/>
      <point x="388" y="355"/>
      <point x="273" y="355" type="curve" smooth="yes"/>
      <point x="158" y="355"/>
      <point x="80" y="422"/>
    </contour>
    <contour>
      <point x="161" y="521" type="curve" smooth="yes"/>
      <point x="161" y="455"/>
      <point x="213" y="410"/>
      <point x="273" y="410" type="curve" smooth="yes"/>
      <point x="333" y="410"/>
      <point x="385" y="455"/>
      <point x="385" y="521" type="curve" smooth="yes"/>
      <point x="385" y="587"/>
      <point x="338" y="635"/>
      <point x="273" y="635" type="curve" smooth="yes"/>
      <point x="208" y="635"/>
      <point x="161" y="587"/>
    </contour>
    <contour>
      <point x="55" y="190" type="curve" smooth="yes"/>
      <point x="55" y="319"/>
      <point x="158" y="390"/>
      <point x="273" y="390" type="curve" smooth="yes"/>
      <point x="388" y="390"/>
      <point x="491" y="319"/>
      <point x="491" y="190" type="curve" smooth="yes"/>
      <point x="491" y="81"/>
      <point x="398" y="-10"/>
      <point x="273" y="-10" type="curve" smooth="yes"/>
      <point x="148" y="-10"/>
      <point x="55" y="81"/>
    </contour>
    <contour>
      <point x="136" y="200" type="curve" smooth="yes"/>
      <point x="136" y="114"/>
      <point x="203" y="65"/>
      <point x="273" y="65" type="curve" smooth="yes"/>
      <point x="343" y="65"/>
      <point x="410" y="114"/>
      <point x="410" y="200" type="curve" smooth="yes"/>
      <point x="410" y="276"/>
      <point x="343" y="335"/>
      <point x="273" y="335" type="curve" smooth="yes"/>
      <point x="203" y="335"/>
      <point x="136" y="276"/>
    </contour>
  </outline>
</glyph>
<glyph name="nine" format="1">
  <advance width="576"/>
  <unicode hex="0039"/>
  <outline>
    <contour>
      <point x="445" y="470" type="curve" smooth="yes"/>
      <point x="445" y="566"/>
      <point x="378" y="633"/>
      <point x="288" y="633" type="curve" smooth="yes"/>
      <point x="198" y="633"/>
      <point x="131" y="566"/>
      <point x="131" y="470" type="curve" smooth="yes"/>
      <point x="131" y="374"/>
      <point x="198" y="305"/>
      <point x="288" y="305" type="curve" smooth="yes"/>
      <point x="378" y="305"/>
      <point x="445" y="374"/>
    </contour>
    <contour>
      <point x="246" y="0" type="line"/>
      <point x="139" y="0" type="line"/>
      <point x="358" y="289" type="line"/>
      <point x="364" y="284" type="line"/>
      <point x="337" y="251"/>
      <point x="302" y="243"/>
      <point x="257" y="243" type="curve" smooth="yes"/>
      <point x="143" y="243"/>
      <point x="50" y="341"/>
      <point x="50" y="470" type="curve" smooth="yes"/>
      <point x="50" y="614"/>
      <point x="153" y="710"/>
      <point x="288" y="710" type="curve" smooth="yes"/>
      <point x="423" y="710"/>
      <point x="526" y="614"/>
      <point x="526" y="470" type="curve" smooth="yes"/>
      <point x="526" y="413"/>
      <point x="509" y="362"/>
      <point x="482" y="325" type="curve" smooth="yes"/>
    </contour>
  </outline>
</glyph>
<glyph name="J" format="1">
  <advance width="240"/>
  <unicode hex="004A"/>
  <outline>
    <contour>
      <point x="-67" y="-104" type="line"/>
      <point x="-53" y="-127"/>
      <point x="-24" y="-140"/>
      <point x="12" y="-140" type="curve" smooth="yes"/>
      <point x="42" y="-140"/>
      <point x="80" y="-116"/>
      <point x="80" y="-50" type="curve" smooth="yes"/>
      <point x="80" y="700" type="line"/>
      <point x="160" y="700" type="line"/>
      <point x="160" y="-60" type="line" smooth="yes"/>
      <point x="160" y="-169"/>
      <point x="101" y="-220"/>
      <point x="7" y="-220" type="curve" smooth="yes"/>
      <point x="-46" y="-220"/>
      <point x="-96" y="-190"/>
      <point x="-111" y="-170" type="curve"/>
    </contour>
  </outline>
</glyph>
<glyph name="N" format="1">
  <advance width="775"/>
  <unicode hex="004E"/>
  <outline>
    <contour>
      <point x="610" y="700" type="line"/>
      <point x="695" y="700" type="line"/>
      <point x="695" y="-35" type="line"/>
      <point x="165" y="521" type="line"/>
      <point x="165" y="0" type="line"/>
      <point x="80" y="0" type="line"/>
      <point x="80" y="735" type="line"/>
      <point x="610" y="179" type="line"/>
    </contour>
  </outline>
</glyph>
<glyph name="P" format="1">
  <advance width="548"/>
  <unicode hex="0050"/>
  <outline>
    <contour>
      <point x="80" y="700" type="line"/>
      <point x="165" y="700" type="line"/>
      <point x="165" y="0" type="line"/>
      <point x="80" y="0" type="line"/>
    </contour>
    <contour>
      <point x="127" y="620" type="line"/>
      <point x="127" y="700" type="line"/>
      <point x="270" y="700" type="line" smooth="yes"/>
      <point x="405" y="700"/>
      <point x="508" y="619"/>
      <point x="508" y="490" type="curve" smooth="yes"/>
      <point x="508" y="361"/>
      <point x="405" y="280"/>
      <point x="270" y="280" type="curve" smooth="yes"/>
      <point x="127" y="280" type="line"/>
      <point x="127" y="360" type="line"/>
      <point x="270" y="360" type="line" smooth="yes"/>
      <point x="360" y="360"/>
      <point x="423" y="404"/>
      <point x="423" y="490" type="curve" smooth="yes"/>
      <point x="423" y="576"/>
      <point x="360" y="620"/>
      <point x="270" y="620" type="curve" smooth="yes"/>
    </contour>
  </outline>
</glyph>
<glyph name="u" format="1">
  <advance width="525"/>
  <unicode hex="0075"/>
  <outline>
    <contour>
      <point x="370" y="0" type="line"/>
      <point x="370" y="460" type="line"/>
      <point x="450" y="460" type="line"/>
      <point x="450" y="0" type="line"/>
    </contour>
    <contour>
      <point x="155" y="180" type="line" smooth="yes"/>
      <point x="155" y="104"/>
      <point x="188" y="65"/>
      <point x="253" y="65" type="curve" smooth="yes"/>
      <point x="323" y="65"/>
      <point x="370" y="114"/>
      <point x="370" y="180" type="curve"/>
      <point x="396" y="180" type="line"/>
      <point x="396" y="71"/>
      <point x="328" y="-10"/>
      <point x="233" y="-10" type="curve" smooth="yes"/>
      <point x="138" y="-10"/>
      <point x="75" y="51"/>
      <point x="75" y="170" type="curve" smooth="yes"/>
      <point x="75" y="460" type="line"/>
      <point x="155" y="460" type="line"/>
    </contour>
  </outline>
</glyph>
<glyph name="w" format="1">
  <advance width="680"/>
  <unicode hex="0077"/>
  <outline>
    <contour>
      <point x="5" y="460" type="line"/>
      <point x="95" y="460" type="line"/>
      <point x="210" y="161" type="line"/>
      <point x="335" y="495" type="line"/>
      <point x="469" y="159" type="line"/>
      <point x="585" y="460" type="line"/>
      <point x="675" y="460" type="line"/>
      <point x="475" y="-35" type="line"/>
      <point x="336" y="300" type="line"/>
      <point x="205" y="-35" type="line"/>
    </contour>
  </outline>
</glyph>
<glyph name="y" format="1">
  <advance width="440"/>
  <unicode hex="0079"/>
  <outline>
    <contour>
      <point x="440" y="460" type="line"/>
      <point x="140" y="-220" type="line"/>
      <point x="50" y="-220" type="line"/>
      <point x="176" y="65" type="line"/>
      <point x="0" y="460" type="line"/>
      <point x="95" y="460" type="line"/>
      <point x="241" y="100" type="line"/>
      <point x="208" y="104" type="line"/>
      <point x="350" y="460" type="line"/>
    </contour>
  </outline>
</glyph>
<glyph name="currency" format="1">
  <advance width="580"/>
  <unicode hex="00A4"/>
  <outline>
    <contour>
      <point x="37" y="503" type="line"/>
      <point x="87" y="553" type="line"/>
      <point x="180" y="459" type="line"/>
      <point x="131" y="410" type="line"/>
    </contour>
    <contour>
      <point x="87" y="47" type="line"/>
      <point x="37" y="97" type="line"/>
      <point x="131" y="190" type="line"/>
      <point x="180" y="141" type="line"/>
    </contour>
    <contour>
      <point x="449" y="410" type="line"/>
      <point x="399" y="459" type="line"/>
      <point x="493" y="553" type="line"/>
      <point x="542" y="503" type="line"/>
    </contour>
    <contour>
      <point x="399" y="141" type="line"/>
      <point x="449" y="190" type="line"/>
      <point x="542" y="97" type="line"/>
      <point x="493" y="47" type="line"/>
    </contour>
    <contour>
      <point x="52" y="300" type="curve" smooth="yes"/>
      <point x="52" y="439"/>
      <point x="155" y="540"/>
      <point x="290" y="540" type="curve" smooth="yes"/>
      <point x="425" y="540"/>
      <point x="528" y="439"/>
      <point x="528" y="300" type="curve" smooth="yes"/>
      <point x="528" y="161"/>
      <point x="425" y="60"/>
      <point x="290" y="60" type="curve" smooth="yes"/>
      <point x="155" y="60"/>
      <point x="52" y="161"/>
    </contour>
    <contour>
      <point x="133" y="300" type="curve" smooth="yes"/>
      <point x="133" y="204"/>
      <point x="200" y="135"/>
      <point x="290" y="135" type="curve" smooth="yes"/>
      <point x="380" y="135"/>
      <point x="447" y="204"/>
      <point x="447" y="300" type="curve" smooth="yes"/>
      <point x="447" y="396"/>
      <point x="380" y="465"/>
      <point x="290" y="465" type="curve" smooth="yes"/>
      <point x="200" y="465"/>
      <point x="133" y="396"/>
    </contour>
  </outline>
</glyph>
<glyph name="yen" format="1">
  <advance width="580"/>
  <unicode hex="00A5"/>
  <outline>
    <contour>
      <point x="45" y="290" type="line"/>
      <point x="45" y="365" type="line"/>
      <point x="530" y="365" type="line"/>
      <point x="530" y="290" type="line"/>
    </contour>
    <contour>
      <point x="45" y="140" type="line"/>
      <point x="45" y="215" type="line"/>
      <point x="530" y="215" type="line"/>
      <point x="530" y="140" type="line"/>
    </contour>
    <contour>
      <point x="471" y="700" type="line"/>
      <point x="565" y="700" type="line"/>
      <point x="334" y="306" type="line"/>
      <point x="334" y="0" type="line"/>
      <point x="248" y="0" type="line"/>
      <point x="248" y="303" type="line"/>
      <point x="15" y="700" type="line"/>
      <point x="110" y="700" type="line"/>
      <point x="290" y="376" type="line"/>
    </contour>
  </outline>
</glyph>
<glyph name="copyright" format="1">
  <advance width="800"/>
  <unicode hex="00A9"/>
  <outline>
    <contour>
      <point x="239" y="350" type="curve" smooth="yes"/>
      <point x="239" y="252"/>
      <point x="306" y="185"/>
      <point x="395" y="185" type="curve" smooth="yes"/>
      <point x="454" y="185"/>
      <point x="501" y="210"/>
      <point x="530" y="247" type="curve"/>
      <point x="530" y="180" type="line"/>
      <point x="495" y="149"/>
      <point x="456" y="134"/>
      <point x="395" y="134" type="curve" smooth="yes"/>
      <point x="279" y="134"/>
      <point x="185" y="225"/>
      <point x="185" y="350" type="curve" smooth="yes"/>
      <point x="185" y="475"/>
      <point x="279" y="566"/>
      <point x="395" y="566" type="curve" smooth="yes"/>
      <point x="456" y="566"/>
      <point x="495" y="551"/>
      <point x="530" y="520" type="curve"/>
      <point x="530" y="453" type="line"/>
      <point x="501" y="490"/>
      <point x="454" y="515"/>
      <point x="395" y="515" type="curve" smooth="yes"/>
      <point x="306" y="515"/>
      <point x="239" y="448"/>
    </contour>
    <contour>
      <point x="95" y="350" type="curve" smooth="yes"/>
      <point x="95" y="172"/>
      <point x="227" y="40"/>
      <point x="400" y="40" type="curve" smooth="yes"/>
      <point x="573" y="40"/>
      <point x="705" y="172"/>
      <point x="705" y="350" type="curve" smooth="yes"/>
      <point x="705" y="528"/>
      <point x="573" y="660"/>
      <point x="400" y="660" type="curve" smooth="yes"/>
      <point x="227" y="660"/>
      <point x="95" y="528"/>
    </contour>
    <contour>
      <point x="40" y="350" type="curve" smooth="yes"/>
      <point x="40" y="559"/>
      <point x="196" y="710"/>
      <point x="400" y="710" type="curve" smooth="yes"/>
      <point x="604" y="710"/>
      <point x="760" y="559"/>
      <point x="760" y="350" type="curve" smooth="yes"/>
      <point x="760" y="141"/>
      <point x="604" y="-10"/>
      <point x="400" y="-10" type="curve" smooth="yes"/>
      <point x="196" y="-10"/>
      <point x="40" y="141"/>
    </contour>
  </outline>
</glyph>
<glyph name="logicalnot" format="1">
  <advance width="620"/>
  <unicode hex="00AC"/>
  <outline>
    <contour>
      <point x="65" y="300" type="line"/>
      <point x="65" y="375" type="line"/>
      <point x="555" y="375" type="line"/>
      <point x="555" y="175" type="line"/>
      <point x="480" y="175" type="line"/>
      <point x="480" y="300" type="line"/>
    </contour>
  </outline>
</glyph>
<glyph name="onequarter" format="1">
  <advance width="754"/>
  <unicode hex="00BC"/>
  <outline>
    <contour>
      <point x="618" y="700" type="line"/>
      <point x="683" y="700" type="line"/>
      <point x="163" y="0" type="line"/>
      <point x="98" y="0" type="line"/>
    </contour>
    <contour>
      <point x="30" y="611" type="line"/>
      <point x="30" y="664" type="line"/>
      <point x="174" y="700" type="line"/>
      <point x="174" y="274" type="line"/>
      <point x="123" y="274" type="line"/>
      <point x="123" y="639" type="line"/>
    </contour>
    <contour>
      <point x="398" y="84" type="line"/>
      <point x="440" y="129" type="line"/>
      <point x="622" y="129" type="line" smooth="yes"/>
      <point x="632" y="129" type="line" smooth="yes"/>
      <point x="718" y="129" type="line"/>
      <point x="718" y="84" type="line"/>
    </contour>
    <contour>
      <point x="452" y="84" type="line"/>
      <point x="398" y="84" type="line"/>
      <point x="631" y="420" type="line"/>
      <point x="652" y="420" type="line"/>
      <point x="652" y="0" type="line"/>
      <point x="601" y="0" type="line"/>
      <point x="601" y="106" type="line" smooth="yes"/>
      <point x="601" y="112" type="line" smooth="yes"/>
      <point x="601" y="307" type="line"/>
    </contour>
  </outline>
</glyph>
<glyph name="Adieresis" format="1">
  <advance width="660"/>
  <unicode hex="00C4"/>
  <outline>
    <contour>
      <point x="147" y="210" type="line"/>
      <point x="177" y="290" type="line"/>
      <point x="487" y="290" type="line"/>
      <point x="517" y="210" type="line"/>
    </contour>
    <contour>
      <point x="330" y="542" type="line"/>
      <point x="212" y="264" type="line"/>
      <point x="204" y="246" type="line"/>
      <point x="100" y="0" type="line"/>
      <point x="5" y="0" type="line"/>
      <point x="330" y="735" type="line"/>
      <point x="655" y="0" type="line"/>
      <point x="560" y="0" type="line"/>
      <point x="458" y="240" type="line"/>
      <point x="450" y="260" type="line"/>
    </contour>
    <contour>
      <point x="375" y="850" type="curve" smooth="yes"/>
      <point x="375" y="880"/>
      <point x="400" y="905"/>
      <point x="430" y="905" type="curve" smooth="yes"/>
      <point x="460" y="905"/>
      <point x="485" y="880"/>
      <point x="485" y="850" type="curve" smooth="yes"/>
      <point x="485" y="820"/>
      <point x="460" y="795"/>
      <point x="430" y="795" type="curve" smooth="yes"/>
      <point x="400" y="795"/>
      <point x="375" y="820"/>
    </contour>
    <contour>
      <point x="175" y="850" type="curve" smooth="yes"/>
      <point x="175" y="880"/>
      <point x="200" y="905"/>
      <point x="230" y="905" type="curve" smooth="yes"/>
      <point x="260" y="905"/>
      <point x="285" y="880"/>
      <point x="285" y="850" type="curve" smooth="yes"/>
      <point x="285" y="820"/>
      <point x="260" y="795"/>
      <point x="230" y="795" type="curve" smooth="yes"/>
      <point x="200" y="795"/>
      <point x="175" y="820"/>
    </contour>
  </outline>
</glyph>
<glyph name="Ccedilla" format="1">
  <advance width="685"/>
  <unicode hex="00C7"/>
  <outline>
    <contour>
      <point x="130" y="350" type="curve" smooth="yes"/>
      <point x="130" y="187"/>
      <point x="252" y="75"/>
      <point x="390" y="75" type="curve" smooth="yes"/>
      <point x="489" y="75"/>
      <point x="566" y="117"/>
      <point x="615" y="179" type="curve"/>
      <point x="615" y="67" type="line"/>
      <point x="556" y="15"/>
      <point x="492" y="-10"/>
      <point x="390" y="-10" type="curve" smooth="yes"/>
      <point x="196" y="-10"/>
      <point x="40" y="141"/>
      <point x="40" y="350" type="curve" smooth="yes"/>
      <point x="40" y="559"/>
      <point x="196" y="710"/>
      <point x="390" y="710" type="curve" smooth="yes"/>
      <point x="492" y="710"/>
      <point x="556" y="685"/>
      <point x="615" y="633" type="curve"/>
      <point x="615" y="521" type="line"/>
      <point x="566" y="583"/>
      <point x="489" y="625"/>
      <point x="390" y="625" type="curve" smooth="yes"/>
      <point x="252" y="625"/>
      <point x="130" y="513"/>
    </contour>
    <contour>
      <point x="380" y="59" type="line"/>
      <point x="440" y="59" type="line"/>
      <point x="377" y="-53" type="line"/>
      <point x="380" y="-53"/>
      <point x="383" y="-53"/>
      <point x="386" y="-53" type="curve" smooth="yes"/>
      <point x="419" y="-53"/>
      <point x="458" y="-78"/>
      <point x="458" y="-127" type="curve" smooth="yes"/>
      <point x="458" y="-188"/>
      <point x="407" y="-221"/>
      <point x="352" y="-221" type="curve" smooth="yes"/>
      <point x="315" y="-221"/>
      <point x="290" y="-211"/>
      <point x="262" y="-183" type="curve"/>
      <point x="296" y="-143" type="line"/>
      <point x="315" y="-159"/>
      <point x="326" y="-167"/>
      <point x="352" y="-167" type="curve" smooth="yes"/>
      <point x="386" y="-167"/>
      <point x="402" y="-151"/>
      <point x="402" y="-127" type="curve" smooth="yes"/>
      <point x="402" y="-103"/>
      <point x="386" y="-91"/>
      <point x="352" y="-91" type="curve" smooth="yes"/>
      <point x="342" y="-91"/>
      <point x="315" y="-95"/>
      <point x="294" y="-109" type="curve"/>
    </contour>
  </outline>
</glyph>
<glyph name="Ugrave" format="1">
  <advance width="626"/>
  <unicode hex="00D9"/>
  <outline>
    <contour>
      <point x="75" y="700" type="line"/>
      <point x="160" y="700" type="line"/>
      <point x="160" y="230" type="line" smooth="yes"/>
      <point x="160" y="134"/>
      <point x="213" y="70"/>
      <point x="313" y="70" type="curve" smooth="yes"/>
      <point x="413" y="70"/>
      <point x="466" y="134"/>
      <point x="466" y="230" type="curve" smooth="yes"/>
      <point x="466" y="700" type="line"/>
      <point x="551" y="700" type="line"/>
      <point x="551" y="230" type="line" smooth="yes"/>
      <point x="551" y="91"/>
      <point x="458" y="-10"/>
      <point x="313" y="-10" type="curve" smooth="yes"/>
      <point x="168" y="-10"/>
      <point x="75" y="91"/>
      <point x="75" y="230" type="curve" smooth="yes"/>
    </contour>
    <contour>
      <point x="183" y="920" type="line"/>
      <point x="258" y="960" type="line"/>
      <point x="408" y="800" type="line"/>
      <point x="363" y="770" type="line"/>
    </contour>
  </outline>
</glyph>
<glyph name="Udieresis" format="1">
  <advance width="626"/>
  <unicode hex="00DC"/>
  <outline>
    <contour>
      <point x="75" y="700" type="line"/>
      <point x="160" y="700" type="line"/>
      <point x="160" y="230" type="line" smooth="yes"/>
      <point x="160" y="134"/>
      <point x="213" y="70"/>
      <point x="313" y="70" type="curve" smooth="yes"/>
      <point x="413" y="70"/>
      <point x="466" y="134"/>
      <point x="466" y="230" type="curve" smooth="yes"/>
      <point x="466" y="700" type="line"/>
      <point x="551" y="700" type="line"/>
      <point x="551" y="230" type="line" smooth="yes"/>
      <point x="551" y="91"/>
      <point x="458" y="-10"/>
      <point x="313" y="-10" type="curve" smooth="yes"/>
      <point x="168" y="-10"/>
      <point x="75" y="91"/>
      <point x="75" y="230" type="curve" smooth="yes"/>
    </contour>
    <contour>
      <point x="358" y="825" type="curve" smooth="yes"/>
      <point x="358" y="855"/>
      <point x="383" y="880"/>
      <point x="413" y="880" type="curve" smooth="yes"/>
      <point x="443" y="880"/>
      <point x="468" y="855"/>
      <point x="468" y="825" type="curve" smooth="yes"/>
      <point x="468" y="795"/>
      <point x="443" y="770"/>
      <point x="413" y="770" type="curve" smooth="yes"/>
      <point x="383" y="770"/>
      <point x="358" y="795"/>
    </contour>
    <contour>
      <point x="158" y="825" type="curve" smooth="yes"/>
      <point x="158" y="855"/>
      <point x="183" y="880"/>
      <point x="213" y="880" type="curve" smooth="yes"/>
      <point x="243" y="880"/>
      <point x="268" y="855"/>
      <point x="268" y="825" type="curve" smooth="yes"/>
      <point x="268" y="795"/>
      <point x="243" y="770"/>
      <point x="213" y="770" type="curve" smooth="yes"/>
      <point x="183" y="770"/>
      <point x="158" y="795"/>
    </contour>
  </outline>
</glyph>
<glyph name="germandbls" format="1">
  <advance width="570"/>
  <unicode hex="00DF"/>
  <outline>
    <contour>
      <point x="272" y="65" type="line"/>
      <point x="352" y="65"/>
      <point x="444" y="129"/>
      <point x="444" y="235" type="curve" smooth="yes"/>
      <point x="444" y="321"/>
      <point x="362" y="405"/>
      <point x="252" y="405" type="curve"/>
      <point x="252" y="460" type="line"/>
      <point x="407" y="460"/>
      <point x="525" y="364"/>
      <point x="525" y="225" type="curve" smooth="yes"/>
      <point x="525" y="86"/>
      <point x="407" y="-10"/>
      <point x="272" y="-10" type="curve"/>
    </contour>
    <contour>
      <point x="252" y="425" type="curve"/>
      <point x="252" y="480" type="line"/>
      <point x="362" y="480"/>
      <point x="404" y="540"/>
      <point x="404" y="596" type="curve" smooth="yes"/>
      <point x="404" y="662"/>
      <point x="367" y="715"/>
      <point x="277" y="715" type="curve" smooth="yes"/>
      <point x="217" y="715"/>
      <point x="160" y="682"/>
      <point x="160" y="606" type="curve" smooth="yes"/>
      <point x="160" y="0" type="line"/>
      <point x="80" y="0" type="line"/>
      <point x="80" y="606" type="line" smooth="yes"/>
      <point x="80" y="715"/>
      <point x="172" y="790"/>
      <point x="277" y="790" type="curve" smooth="yes"/>
      <point x="412" y="790"/>
      <point x="485" y="715"/>
      <point x="485" y="606" type="curve" smooth="yes"/>
      <point x="485" y="487"/>
      <point x="407" y="425"/>
    </contour>
  </outline>
</glyph>
<glyph name="ccedilla" format="1">
  <advance width="478"/>
  <unicode hex="00E7"/>
  <outline>
    <contour>
      <point x="111" y="230" type="curve" smooth="yes"/>
      <point x="111" y="134"/>
      <point x="178" y="65"/>
      <point x="268" y="65" type="curve" smooth="yes"/>
      <point x="342" y="65"/>
      <point x="407" y="104"/>
      <point x="428" y="149" type="curve"/>
      <point x="428" y="49" type="line"/>
      <point x="396" y="11"/>
      <point x="331" y="-10"/>
      <point x="268" y="-10" type="curve" smooth="yes"/>
      <point x="133" y="-10"/>
      <point x="30" y="91"/>
      <point x="30" y="230" type="curve" smooth="yes"/>
      <point x="30" y="369"/>
      <point x="133" y="470"/>
      <point x="268" y="470" type="curve" smooth="yes"/>
      <point x="331" y="470"/>
      <point x="396" y="448"/>
      <point x="428" y="411" type="curve"/>
      <point x="428" y="311" type="line"/>
      <point x="407" y="356"/>
      <point x="342" y="395"/>
      <point x="268" y="395" type="curve" smooth="yes"/>
      <point x="178" y="395"/>
      <point x="111" y="326"/>
    </contour>
    <contour>
      <point x="278" y="57" type="line"/>
      <point x="338" y="57" type="line"/>
      <point x="274" y="-57" type="line"/>
      <point x="192" y="-111" type="line"/>
    </contour>
    <contour>
      <point x="356" y="-129" type="curve"/>
      <point x="300" y="-129" type="line"/>
      <point x="300" y="-105"/>
      <point x="284" y="-93"/>
      <point x="250" y="-93" type="curve" smooth="yes"/>
      <point x="240" y="-93"/>
      <point x="215" y="-95"/>
      <point x="192" y="-111" type="curve"/>
      <point x="232" y="-71" type="line"/>
      <point x="258" y="-55"/>
      <point x="271" y="-55"/>
      <point x="284" y="-55" type="curve" smooth="yes"/>
      <point x="317" y="-55"/>
      <point x="356" y="-80"/>
    </contour>
    <contour>
      <point x="356" y="-129" type="line"/>
      <point x="356" y="-190"/>
      <point x="305" y="-223"/>
      <point x="250" y="-223" type="curve" smooth="yes"/>
      <point x="213" y="-223"/>
      <point x="188" y="-213"/>
      <point x="160" y="-185" type="curve"/>
      <point x="194" y="-145" type="line"/>
      <point x="213" y="-161"/>
      <point x="224" y="-169"/>
      <point x="250" y="-169" type="curve" smooth="yes"/>
      <point x="284" y="-169"/>
      <point x="300" y="-153"/>
      <point x="300" y="-129" type="curve"/>
    </contour>
  </outline>
</glyph>
<glyph name="ucircumflex" format="1">
  <advance width="525"/>
  <unicode hex="00FB"/>
  <outline>
    <contour>
      <point x="370" y="0" type="line"/>
      <point x="370" y="460" type="line"/>
      <point x="450" y="460" type="line"/>
      <point x="450" y="0" type="line"/>
    </contour>
    <contour>
      <point x="155" y="180" type="line" smooth="yes"/>
      <point x="155" y="104"/>
      <point x="188" y="65"/>
      <point x="253" y="65" type="curve" smooth="yes"/>
      <point x="323" y="65"/>
      <point x="370" y="114"/>
      <point x="370" y="180" type="curve"/>
      <point x="406" y="180" type="line"/>
      <point x="406" y="71"/>
      <point x="328" y="-10"/>
      <point x="233" y="-10" type="curve" smooth="yes"/>
      <point x="138" y="-10"/>
      <point x="75" y="51"/>
      <point x="75" y="170" type="curve" smooth="yes"/>
      <point x="75" y="460" type="line"/>
      <point x="155" y="460" type="line"/>
    </contour>
    <contour>
      <point x="262" y="645" type="line"/>
      <point x="152" y="550" type="line"/>
      <point x="102" y="590" type="line"/>
      <point x="262" y="730" type="line"/>
      <point x="422" y="590" type="line"/>
      <point x="372" y="550" type="line"/>
    </contour>
  </outline>
</glyph>
<glyph name="edotaccent" format="1">
  <advance width="515"/>
  <unicode hex="0117"/>
  <outline>
    <contour>
      <point x="96" y="210" type="line"/>
      <point x="96" y="278" type="line"/>
      <point x="459" y="278" type="line"/>
      <point x="479" y="210" type="line"/>
    </contour>
    <contour>
      <point x="395" y="250" type="line" smooth="yes"/>
      <point x="395" y="336"/>
      <point x="353" y="400"/>
      <point x="263" y="400" type="curve" smooth="yes"/>
      <point x="183" y="400"/>
      <point x="118" y="346"/>
      <point x="118" y="260" type="curve"/>
      <point x="116" y="230" type="line"/>
      <point x="116" y="124"/>
      <point x="173" y="65"/>
      <point x="263" y="65" type="curve" smooth="yes"/>
      <point x="330" y="65"/>
      <point x="376" y="98"/>
      <point x="407" y="148" type="curve"/>
      <point x="472" y="107" type="line"/>
      <point x="426" y="37"/>
      <point x="372" y="-10"/>
      <point x="253" y="-10" type="curve" smooth="yes"/>
      <point x="128" y="-10"/>
      <point x="35" y="91"/>
      <point x="35" y="230" type="curve" smooth="yes"/>
      <point x="35" y="247"/>
      <point x="36" y="263"/>
      <point x="39" y="279" type="curve" smooth="yes"/>
      <point x="58" y="392"/>
      <point x="144" y="470"/>
      <point x="263" y="470" type="curve" smooth="yes"/>
      <point x="393" y="470"/>
      <point x="480" y="379"/>
      <point x="480" y="234" type="curve" smooth="yes"/>
      <point x="480" y="226"/>
      <point x="480" y="218"/>
      <point x="479" y="210" type="curve"/>
      <point x="395" y="230" type="line"/>
    </contour>
    <contour>
      <point x="208" y="585" type="curve" smooth="yes"/>
      <point x="208" y="615"/>
      <point x="233" y="640"/>
      <point x="263" y="640" type="curve" smooth="yes"/>
      <point x="293" y="640"/>
      <point x="318" y="615"/>
      <point x="318" y="585" type="curve" smooth="yes"/>
      <point x="318" y="555"/>
      <point x="293" y="530"/>
      <point x="263" y="530" type="curve" smooth="yes"/>
      <point x="233" y="530"/>
      <point x="208" y="555"/>
    </contour>
  </outline>
</glyph>
<glyph name="Gdotaccent" format="1">
  <advance width="775"/>
  <unicode hex="0120"/>
  <outline>
    <contour>
      <point x="405" y="275" type="line"/>
      <point x="405" y="355" type="line"/>
      <point x="730" y="355" type="line"/>
      <point x="730" y="161"/>
      <point x="609" y="-10"/>
      <point x="395" y="-10" type="curve" smooth="yes"/>
      <point x="191" y="-10"/>
      <point x="40" y="141"/>
      <point x="40" y="350" type="curve" smooth="yes"/>
      <point x="40" y="559"/>
      <point x="191" y="710"/>
      <point x="395" y="710" type="curve" smooth="yes"/>
      <point x="524" y="710"/>
      <point x="626" y="658"/>
      <point x="686" y="561" type="curve"/>
      <point x="626" y="506" type="line"/>
      <point x="582" y="580"/>
      <point x="502" y="625"/>
      <point x="395" y="625" type="curve" smooth="yes"/>
      <point x="247" y="625"/>
      <point x="130" y="513"/>
      <point x="130" y="350" type="curve" smooth="yes"/>
      <point x="130" y="187"/>
      <point x="247" y="75"/>
      <point x="395" y="75" type="curve" smooth="yes"/>
      <point x="534" y="75"/>
      <point x="615" y="166"/>
      <point x="638" y="275" type="curve"/>
    </contour>
    <contour>
      <point x="340" y="825" type="curve" smooth="yes"/>
      <point x="340" y="855"/>
      <point x="365" y="880"/>
      <point x="395" y="880" type="curve" smooth="yes"/>
      <point x="425" y="880"/>
      <point x="450" y="855"/>
      <point x="450" y="825" type="curve" smooth="yes"/>
      <point x="450" y="795"/>
      <point x="425" y="770"/>
      <point x="395" y="770" type="curve" smooth="yes"/>
      <point x="365" y="770"/>
      <point x="340" y="795"/>
    </contour>
  </outline>
</glyph>
<glyph name="iogonek" format="1">
  <advance width="260"/>
  <unicode hex="012F"/>
  <outline>
    <contour>
      <point x="75" y="650" type="curve" smooth="yes"/>
      <point x="75" y="680"/>
      <point x="100" y="705"/>
      <point x="130" y="705" type="curve" smooth="yes"/>
      <point x="160" y="705"/>
      <point x="185" y="680"/>
      <point x="185" y="650" type="curve" smooth="yes"/>
      <point x="185" y="620"/>
      <point x="160" y="595"/>
      <point x="130" y="595" type="curve" smooth="yes"/>
      <point x="100" y="595"/>
      <point x="75" y="620"/>
    </contour>
    <contour>
      <point x="90" y="460" type="line"/>
      <point x="170" y="460" type="line"/>
      <point x="170" y="0" type="line"/>
      <point x="90" y="0" type="line"/>
    </contour>
    <contour>
      <point x="176" y="-147" type="curve"/>
      <point x="209" y="-197" type="line"/>
      <point x="194" y="-217"/>
      <point x="164" y="-237"/>
      <point x="121" y="-237" type="curve" smooth="yes"/>
      <point x="37" y="-237"/>
      <point x="-2" y="-196"/>
      <point x="-2" y="-137" type="curve"/>
      <point x="78" y="-117" type="line"/>
      <point x="78" y="-153"/>
      <point x="96" y="-167"/>
      <point x="126" y="-167" type="curve" smooth="yes"/>
      <point x="152" y="-167"/>
      <point x="162" y="-160"/>
    </contour>
    <contour>
      <point x="78" y="-117" type="curve"/>
      <point x="-2" y="-137" type="line"/>
      <point x="-2" y="-78"/>
      <point x="60" y="-28"/>
      <point x="130" y="8" type="curve"/>
      <point x="171" y="-17" type="line"/>
      <point x="119" y="-39"/>
      <point x="78" y="-80"/>
    </contour>
  </outline>
</glyph>
<glyph name="Lacute" format="1">
  <advance width="450"/>
  <unicode hex="0139"/>
  <outline>
    <contour>
      <point x="80" y="700" type="line"/>
      <point x="165" y="700" type="line"/>
      <point x="165" y="80" type="line"/>
      <point x="440" y="80" type="line"/>
      <point x="440" y="0" type="line"/>
      <point x="80" y="0" type="line"/>
    </contour>
    <contour>
      <point x="390" y="920" type="line"/>
      <point x="210" y="770" type="line"/>
      <point x="165" y="800" type="line"/>
      <point x="315" y="960" type="line"/>
    </contour>
  </outline>
</glyph>
<glyph name="lcaron" format="1">
  <advance width="230"/>
  <unicode hex="013E"/>
  <outline>
    <contour>
      <point x="75" y="780" type="line"/>
      <point x="155" y="780" type="line"/>
      <point x="155" y="0" type="line"/>
      <point x="75" y="0" type="line"/>
    </contour>
    <contour>
      <point x="293" y="780" type="line"/>
      <point x="373" y="750" type="line"/>
      <point x="263" y="500" type="line"/>
      <point x="205" y="521" type="line"/>
    </contour>
  </outline>
</glyph>
<glyph name="Ldot" format="1">
  <advance width="450"/>
  <unicode hex="013F"/>
  <outline>
    <contour>
      <point x="127" y="0" type="line"/>
      <point x="127" y="80" type="line"/>
      <point x="440" y="80" type="line"/>
      <point x="440" y="0" type="line"/>
    </contour>
    <contour>
      <point x="80" y="700" type="line"/>
      <point x="165" y="700" type="line"/>
      <point x="165" y="0" type="line"/>
      <point x="80" y="0" type="line"/>
    </contour>
    <contour>
      <point x="265" y="415" type="curve" smooth="yes"/>
      <point x="265" y="445"/>
      <point x="290" y="470"/>
      <point x="320" y="470" type="curve" smooth="yes"/>
      <point x="350" y="470"/>
      <point x="375" y="445"/>
      <point x="375" y="415" type="curve" smooth="yes"/>
      <point x="375" y="385"/>
      <point x="350" y="360"/>
      <point x="320" y="360" type="curve" smooth="yes"/>
      <point x="290" y="360"/>
      <point x="265" y="385"/>
    </contour>
  </outline>
</glyph>
<glyph name="Nacute" format="1">
  <advance width="775"/>
  <unicode hex="0143"/>
  <outline>
    <contour>
      <point x="610" y="700" type="line"/>
      <point x="695" y="700" type="line"/>
      <point x="695" y="-35" type="line"/>
      <point x="165" y="521" type="line"/>
      <point x="165" y="0" type="line"/>
      <point x="80" y="0" type="line"/>
      <point x="80" y="735" type="line"/>
      <point x="610" y="179" type="line"/>
    </contour>
    <contour>
      <point x="560" y="905" type="line"/>
      <point x="380" y="755" type="line"/>
      <point x="335" y="785" type="line"/>
      <point x="485" y="945" type="line"/>
    </contour>
  </outline>
</glyph>
<glyph name="nacute" format="1">
  <advance width="525"/>
  <unicode hex="0144"/>
  <outline>
    <contour>
      <point x="155" y="460" type="line"/>
      <point x="155" y="0" type="line"/>
      <point x="75" y="0" type="line"/>
      <point x="75" y="460" type="line"/>
    </contour>
    <contour>
      <point x="370" y="280" type="line" smooth="yes"/>
      <point x="370" y="356"/>
      <point x="337" y="395"/>
      <point x="272" y="395" type="curve" smooth="yes"/>
      <point x="202" y="395"/>
      <point x="155" y="346"/>
      <point x="155" y="280" type="curve"/>
      <point x="129" y="280" type="line"/>
      <point x="129" y="389"/>
      <point x="197" y="470"/>
      <point x="292" y="470" type="curve" smooth="yes"/>
      <point x="387" y="470"/>
      <point x="450" y="409"/>
      <point x="450" y="290" type="curve" smooth="yes"/>
      <point x="450" y="0" type="line"/>
      <point x="370" y="0" type="line"/>
    </contour>
    <contour>
      <point x="402" y="680" type="line"/>
      <point x="222" y="530" type="line"/>
      <point x="178" y="560" type="line"/>
      <point x="328" y="720" type="line"/>
    </contour>
  </outline>
</glyph>
<glyph name="uni0145" format="1">
  <advance width="775"/>
  <unicode hex="0145"/>
  <outline>
    <contour>
      <point x="85" y="605" type="line"/>
      <point x="80" y="735" type="line"/>
      <point x="690" y="95" type="line"/>
      <point x="695" y="-35" type="line"/>
    </contour>
    <contour>
      <point x="610" y="700" type="line"/>
      <point x="695" y="700" type="line"/>
      <point x="695" y="-35" type="line"/>
      <point x="610" y="75" type="line"/>
    </contour>
    <contour>
      <point x="80" y="735" type="line"/>
      <point x="165" y="625" type="line"/>
      <point x="165" y="0" type="line"/>
      <point x="80" y="0" type="line"/>
    </contour>
    <contour>
      <point x="399" y="-35" type="line"/>
      <point x="479" y="-65" type="line"/>
      <point x="369" y="-315" type="line"/>
      <point x="311" y="-294" type="line"/>
    </contour>
  </outline>
</glyph>
<glyph name="Ncaron" format="1">
  <advance width="775"/>
  <unicode hex="0147"/>
  <outline>
    <contour>
      <point x="400" y="880" type="line"/>
      <point x="510" y="975" type="line"/>
      <point x="560" y="935" type="line"/>
      <point x="400" y="795" type="line"/>
      <point x="240" y="935" type="line"/>
      <point x="290" y="975" type="line"/>
    </contour>
    <contour>
      <point x="610" y="700" type="line"/>
      <point x="695" y="700" type="line"/>
      <point x="695" y="-35" type="line"/>
      <point x="165" y="521" type="line"/>
      <point x="165" y="0" type="line"/>
      <point x="80" y="0" type="line"/>
      <point x="80" y="735" type="line"/>
      <point x="610" y="179" type="line"/>
    </contour>
  </outline>
</glyph>
<glyph name="Racute" format="1">
  <advance width="560"/>
  <unicode hex="0154"/>
  <outline>
    <contour>
      <point x="205" y="345" type="line"/>
      <point x="300" y="345" type="line"/>
      <point x="550" y="0" type="line"/>
      <point x="445" y="0" type="line"/>
    </contour>
    <contour>
      <point x="80" y="700" type="line"/>
      <point x="165" y="700" type="line"/>
      <point x="165" y="0" type="line"/>
      <point x="80" y="0" type="line"/>
    </contour>
    <contour>
      <point x="127" y="625" type="line"/>
      <point x="127" y="700" type="line"/>
      <point x="270" y="700" type="line" smooth="yes"/>
      <point x="405" y="700"/>
      <point x="508" y="619"/>
      <point x="508" y="490" type="curve" smooth="yes"/>
      <point x="508" y="361"/>
      <point x="405" y="280"/>
      <point x="270" y="280" type="curve" smooth="yes"/>
      <point x="127" y="280" type="line"/>
      <point x="127" y="355" type="line"/>
      <point x="270" y="355" type="line" smooth="yes"/>
      <point x="360" y="355"/>
      <point x="423" y="404"/>
      <point x="423" y="490" type="curve" smooth="yes"/>
      <point x="423" y="576"/>
      <point x="360" y="625"/>
      <point x="270" y="625" type="curve" smooth="yes"/>
    </contour>
    <contour>
      <point x="405" y="920" type="line"/>
      <point x="225" y="770" type="line"/>
      <point x="180" y="800" type="line"/>
      <point x="330" y="960" type="line"/>
    </contour>
  </outline>
</glyph>
<glyph name="tcaron" format="1">
  <advance width="350"/>
  <unicode hex="0165"/>
  <outline>
    <contour>
      <point x="5" y="460" type="line"/>
      <point x="235" y="460" type="line"/>
      <point x="235" y="385" type="line"/>
      <point x="5" y="385" type="line"/>
    </contour>
    <contour>
      <point x="80" y="620" type="line"/>
      <point x="160" y="620" type="line"/>
      <point x="160" y="0" type="line"/>
      <point x="80" y="0" type="line"/>
    </contour>
    <contour>
      <point x="295" y="810" type="line"/>
      <point x="375" y="780" type="line"/>
      <point x="265" y="530" type="line"/>
      <point x="207" y="551" type="line"/>
    </contour>
  </outline>
</glyph>
<glyph name="Utilde" format="1">
  <advance width="626"/>
  <unicode hex="0168"/>
  <outline>
    <contour>
      <point x="75" y="700" type="line"/>
      <point x="160" y="700" type="line"/>
      <point x="160" y="230" type="line" smooth="yes"/>
      <point x="160" y="134"/>
      <point x="213" y="70"/>
      <point x="313" y="70" type="curve" smooth="yes"/>
      <point x="413" y="70"/>
      <point x="466" y="134"/>
      <point x="466" y="230" type="curve" smooth="yes"/>
      <point x="466" y="700" type="line"/>
      <point x="551" y="700" type="line"/>
      <point x="551" y="230" type="line" smooth="yes"/>
      <point x="551" y="91"/>
      <point x="458" y="-10"/>
      <point x="313" y="-10" type="curve" smooth="yes"/>
      <point x="168" y="-10"/>
      <point x="75" y="91"/>
      <point x="75" y="230" type="curve" smooth="yes"/>
    </contour>
    <contour>
      <point x="148" y="807" type="line"/>
      <point x="158" y="856"/>
      <point x="207" y="889"/>
      <point x="252" y="889" type="curve" smooth="yes"/>
      <point x="317" y="889"/>
      <point x="322" y="842"/>
      <point x="376" y="842" type="curve" smooth="yes"/>
      <point x="395" y="842"/>
      <point x="412" y="858"/>
      <point x="432" y="890" type="curve"/>
      <point x="478" y="847" type="line"/>
      <point x="462" y="810"/>
      <point x="422" y="774"/>
      <point x="372" y="774" type="curve" smooth="yes"/>
      <point x="317" y="774"/>
      <point x="296" y="821"/>
      <point x="251" y="821" type="curve" smooth="yes"/>
      <point x="210" y="821"/>
      <point x="201" y="785"/>
      <point x="201" y="770" type="curve"/>
    </contour>
  </outline>
</glyph>
<glyph name="Ubreve" format="1">
  <advance width="626"/>
  <unicode hex="016C"/>
  <outline>
    <contour>
      <point x="75" y="700" type="line"/>
      <point x="160" y="700" type="line"/>
      <point x="160" y="230" type="line" smooth="yes"/>
      <point x="160" y="134"/>
      <point x="213" y="70"/>
      <point x="313" y="70" type="curve" smooth="yes"/>
      <point x="413" y="70"/>
      <point x="466" y="134"/>
      <point x="466" y="230" type="curve" smooth="yes"/>
      <point x="466" y="700" type="line"/>
      <point x="551" y="700" type="line"/>
      <point x="551" y="230" type="line" smooth="yes"/>
      <point x="551" y="91"/>
      <point x="458" y="-10"/>
      <point x="313" y="-10" type="curve" smooth="yes"/>
      <point x="168" y="-10"/>
      <point x="75" y="91"/>
      <point x="75" y="230" type="curve" smooth="yes"/>
    </contour>
    <contour>
      <point x="155" y="910" type="curve"/>
      <point x="226" y="910" type="line"/>
      <point x="226" y="884"/>
      <point x="243" y="835"/>
      <point x="313" y="835" type="curve" smooth="yes"/>
      <point x="383" y="835"/>
      <point x="400" y="884"/>
      <point x="400" y="910" type="curve"/>
      <point x="471" y="910" type="line"/>
      <point x="471" y="841"/>
      <point x="418" y="770"/>
      <point x="313" y="770" type="curve" smooth="yes"/>
      <point x="208" y="770"/>
      <point x="155" y="841"/>
    </contour>
  </outline>
</glyph>
<glyph name="ubreve" format="1">
  <advance width="525"/>
  <unicode hex="016D"/>
  <outline>
    <contour>
      <point x="370" y="0" type="line"/>
      <point x="370" y="460" type="line"/>
      <point x="450" y="460" type="line"/>
      <point x="450" y="0" type="line"/>
    </contour>
    <contour>
      <point x="155" y="180" type="line" smooth="yes"/>
      <point x="155" y="104"/>
      <point x="188" y="65"/>
      <point x="253" y="65" type="curve" smooth="yes"/>
      <point x="323" y="65"/>
      <point x="370" y="114"/>
      <point x="370" y="180" type="curve"/>
      <point x="396" y="180" type="line"/>
      <point x="396" y="71"/>
      <point x="328" y="-10"/>
      <point x="233" y="-10" type="curve" smooth="yes"/>
      <point x="138" y="-10"/>
      <point x="75" y="51"/>
      <point x="75" y="170" type="curve" smooth="yes"/>
      <point x="75" y="460" type="line"/>
      <point x="155" y="460" type="line"/>
    </contour>
    <contour>
      <point x="104.5" y="670" type="curve"/>
      <point x="175.5" y="670" type="line"/>
      <point x="175.5" y="644"/>
      <point x="192.5" y="595"/>
      <point x="262.5" y="595" type="curve" smooth="yes"/>
      <point x="332.5" y="595"/>
      <point x="349.5" y="644"/>
      <point x="349.5" y="670" type="curve"/>
      <point x="420.5" y="670" type="line"/>
      <point x="420.5" y="601"/>
      <point x="367.5" y="530"/>
      <point x="262.5" y="530" type="curve" smooth="yes"/>
      <point x="157.5" y="530"/>
      <point x="104.5" y="601"/>
    </contour>
  </outline>
</glyph>
<glyph name="Wcircumflex" format="1">
  <advance width="990"/>
  <unicode hex="0174"/>
  <outline>
    <contour>
      <point x="700" y="175" type="line"/>
      <point x="885" y="700" type="line"/>
      <point x="980" y="700" type="line"/>
      <point x="705" y="-35" type="line"/>
      <point x="495" y="509" type="line"/>
      <point x="285" y="-35" type="line"/>
      <point x="10" y="700" type="line"/>
      <point x="105" y="700" type="line"/>
      <point x="290" y="175" type="line"/>
      <point x="495" y="735" type="line"/>
    </contour>
    <contour>
      <point x="495" y="890" type="line"/>
      <point x="385" y="795" type="line"/>
      <point x="335" y="835" type="line"/>
      <point x="495" y="975" type="line"/>
      <point x="655" y="835" type="line"/>
      <point x="605" y="795" type="line"/>
    </contour>
  </outline>
</glyph>
<glyph name="Ycircumflex" format="1">
  <advance width="561"/>
  <unicode hex="0176"/>
  <outline>
    <contour>
      <point x="461" y="700" type="line"/>
      <point x="556" y="700" type="line"/>
      <point x="323" y="302" type="line"/>
      <point x="323" y="0" type="line"/>
      <point x="238" y="0" type="line"/>
      <point x="238" y="301" type="line"/>
      <point x="5" y="700" type="line"/>
      <point x="100" y="700" type="line"/>
      <point x="280" y="376" type="line"/>
    </contour>
    <contour>
      <point x="280.5" y="865" type="line"/>
      <point x="170.5" y="770" type="line"/>
      <point x="120.5" y="810" type="line"/>
      <point x="280.5" y="950" type="line"/>
      <point x="440.5" y="810" type="line"/>
      <point x="390.5" y="770" type="line"/>
    </contour>
  </outline>
</glyph>
<glyph name="ycircumflex" format="1">
  <advance width="440"/>
  <unicode hex="0177"/>
  <outline>
    <contour>
      <point x="440" y="460" type="line"/>
      <point x="140" y="-220" type="line"/>
      <point x="50" y="-220" type="line"/>
      <point x="176" y="65" type="line"/>
      <point x="0" y="460" type="line"/>
      <point x="95" y="460" type="line"/>
      <point x="241" y="100" type="line"/>
      <point x="208" y="104" type="line"/>
      <point x="350" y="460" type="line"/>
    </contour>
    <contour>
      <point x="220" y="625" type="line"/>
      <point x="110" y="530" type="line"/>
      <point x="60" y="570" type="line"/>
      <point x="220" y="710" type="line"/>
      <point x="380" y="570" type="line"/>
      <point x="330" y="530" type="line"/>
    </contour>
  </outline>
</glyph>
<glyph name="Zacute" format="1">
  <advance width="545"/>
  <unicode hex="0179"/>
  <outline>
    <contour>
      <point x="35" y="620" type="line"/>
      <point x="35" y="700" type="line"/>
      <point x="525" y="700" type="line"/>
      <point x="157" y="80" type="line"/>
      <point x="505" y="80" type="line"/>
      <point x="505" y="0" type="line"/>
      <point x="15" y="0" type="line"/>
      <point x="383" y="620" type="line"/>
    </contour>
    <contour>
      <point x="440" y="920" type="line"/>
      <point x="260" y="770" type="line"/>
      <point x="215" y="800" type="line"/>
      <point x="365" y="960" type="line"/>
    </contour>
  </outline>
</glyph>
<glyph name="zcaron" format="1">
  <advance width="460"/>
  <unicode hex="017E"/>
  <outline>
    <contour>
      <point x="245" y="615" type="line"/>
      <point x="355" y="710" type="line"/>
      <point x="405" y="670" type="line"/>
      <point x="245" y="530" type="line"/>
      <point x="85" y="670" type="line"/>
      <point x="135" y="710" type="line"/>
    </contour>
    <contour>
      <point x="300" y="385" type="line"/>
      <point x="45" y="385" type="line"/>
      <point x="45" y="460" type="line"/>
      <point x="445" y="460" type="line"/>
      <point x="160" y="75" type="line"/>
      <point x="425" y="75" type="line"/>
      <point x="425" y="0" type="line"/>
      <point x="15" y="0" type="line"/>
    </contour>
  </outline>
</glyph>
<glyph name="uni0237" format="1">
  <advance width="250"/>
  <unicode hex="0237"/>
  <outline>
    <contour>
      <point x="-17" y="-114" type="line"/>
      <point x="-3" y="-137"/>
      <point x="16" y="-140"/>
      <point x="32" y="-140" type="curve" smooth="yes"/>
      <point x="62" y="-140"/>
      <point x="80" y="-116"/>
      <point x="80" y="-50" type="curve" smooth="yes"/>
      <point x="80" y="460" type="line"/>
      <point x="160" y="460" type="line"/>
      <point x="160" y="-60" type="line" smooth="yes"/>
      <point x="160" y="-169"/>
      <point x="111" y="-220"/>
      <point x="27" y="-220" type="curve" smooth="yes"/>
      <point x="-16" y="-220"/>
      <point x="-46" y="-200"/>
      <point x="-61" y="-180" type="curve"/>
    </contour>
  </outline>
</glyph>
<glyph name="uni0401" format="1">
  <advance width="550"/>
  <unicode hex="0401"/>
  <outline>
    <contour>
      <point x="127" y="0" type="line"/>
      <point x="127" y="80" type="line"/>
      <point x="480" y="80" type="line"/>
      <point x="480" y="0" type="line"/>
    </contour>
    <contour>
      <point x="127" y="620" type="line"/>
      <point x="127" y="700" type="line"/>
      <point x="480" y="700" type="line"/>
      <point x="480" y="620" type="line"/>
    </contour>
    <contour>
      <point x="127" y="340" type="line"/>
      <point x="127" y="420" type="line"/>
      <point x="460" y="420" type="line"/>
      <point x="460" y="340" type="line"/>
    </contour>
    <contour>
      <point x="80" y="700" type="line"/>
      <point x="165" y="700" type="line"/>
      <point x="165" y="0" type="line"/>
      <point x="80" y="0" type="line"/>
    </contour>
    <contour>
      <point x="325" y="825" type="curve" smooth="yes"/>
      <point x="325" y="855"/>
      <point x="350" y="880"/>
      <point x="380" y="880" type="curve" smooth="yes"/>
      <point x="410" y="880"/>
      <point x="435" y="855"/>
      <point x="435" y="825" type="curve" smooth="yes"/>
      <point x="435" y="795"/>
      <point x="410" y="770"/>
      <point x="380" y="770" type="curve" smooth="yes"/>
      <point x="350" y="770"/>
      <point x="325" y="795"/>
    </contour>
    <contour>
      <point x="125" y="825" type="curve" smooth="yes"/>
      <point x="125" y="855"/>
      <point x="150" y="880"/>
      <point x="180" y="880" type="curve" smooth="yes"/>
      <point x="210" y="880"/>
      <point x="235" y="855"/>
      <point x="235" y="825" type="curve" smooth="yes"/>
      <point x="235" y="795"/>
      <point x="210" y="770"/>
      <point x="180" y="770" type="curve" smooth="yes"/>
      <point x="150" y="770"/>
      <point x="125" y="795"/>
    </contour>
  </outline>
</glyph>
<glyph name="uni0411" format="1">
  <advance width="548"/>
  <unicode hex="0411"/>
  <outline>
    <contour>
      <point x="127" y="340" type="line"/>
      <point x="127" y="420" type="line"/>
      <point x="270" y="420" type="line" smooth="yes"/>
      <point x="405" y="420"/>
      <point x="508" y="339"/>
      <point x="508" y="210" type="curve" smooth="yes"/>
      <point x="508" y="81"/>
      <point x="405" y="0"/>
      <point x="270" y="0" type="curve" smooth="yes"/>
      <point x="127" y="0" type="line"/>
      <point x="127" y="80" type="line"/>
      <point x="270" y="80" type="line" smooth="yes"/>
      <point x="360" y="80"/>
      <point x="423" y="124"/>
      <point x="423" y="210" type="curve" smooth="yes"/>
      <point x="423" y="296"/>
      <point x="360" y="340"/>
      <point x="270" y="340" type="curve" smooth="yes"/>
    </contour>
    <contour>
      <point x="80" y="700" type="line"/>
      <point x="455" y="700" type="line"/>
      <point x="455" y="620" type="line"/>
      <point x="165" y="620" type="line"/>
      <point x="165" y="0" type="line"/>
      <point x="80" y="0" type="line"/>
    </contour>
  </outline>
</glyph>
<glyph name="uni0416" format="1">
  <advance width="895"/>
  <unicode hex="0416"/>
  <outline>
    <contour>
      <point x="125" y="700" type="line"/>
      <point x="426" y="370" type="line"/>
      <point x="110" y="0" type="line"/>
      <point x="5" y="0" type="line"/>
      <point x="323" y="372" type="line"/>
      <point x="20" y="700" type="line"/>
    </contour>
    <contour>
      <point x="410" y="700" type="line"/>
      <point x="495" y="700" type="line"/>
      <point x="495" y="0" type="line"/>
      <point x="410" y="0" type="line"/>
    </contour>
    <contour>
      <point x="770" y="700" type="line"/>
      <point x="875" y="700" type="line"/>
      <point x="572" y="372" type="line"/>
      <point x="890" y="0" type="line"/>
      <point x="785" y="0" type="line"/>
      <point x="479" y="370" type="line"/>
    </contour>
  </outline>
</glyph>
<glyph name="uni0417" format="1">
  <advance width="606"/>
  <unicode hex="0417"/>
  <outline>
    <contour>
      <point x="283" y="345" type="curve"/>
      <point x="283" y="400" type="line"/>
      <point x="393" y="400"/>
      <point x="454" y="455"/>
      <point x="454" y="521" type="curve" smooth="yes"/>
      <point x="454" y="587"/>
      <point x="408" y="633"/>
      <point x="318" y="633" type="curve" smooth="yes"/>
      <point x="233" y="633"/>
      <point x="171" y="587"/>
      <point x="171" y="526" type="curve"/>
      <point x="90" y="526" type="line"/>
      <point x="90" y="635"/>
      <point x="182" y="710"/>
      <point x="317" y="710" type="curve" smooth="yes"/>
      <point x="457" y="710"/>
      <point x="541" y="623"/>
      <point x="541" y="524" type="curve" smooth="yes"/>
      <point x="541" y="425"/>
      <point x="438" y="345"/>
    </contour>
    <contour>
      <point x="313" y="-10" type="curve" smooth="yes"/>
      <point x="148" y="-10"/>
      <point x="60" y="76"/>
      <point x="60" y="185" type="curve"/>
      <point x="146" y="185" type="line"/>
      <point x="153" y="119"/>
      <point x="203" y="70"/>
      <point x="313" y="70" type="curve" smooth="yes"/>
      <point x="423" y="70"/>
      <point x="474" y="119"/>
      <point x="474" y="195" type="curve" smooth="yes"/>
      <point x="474" y="281"/>
      <point x="393" y="325"/>
      <point x="283" y="325" type="curve"/>
      <point x="283" y="380" type="line"/>
      <point x="438" y="380"/>
      <point x="561" y="324"/>
      <point x="561" y="185" type="curve" smooth="yes"/>
      <point x="561" y="66"/>
      <point x="468" y="-10"/>
    </contour>
  </outline>
</glyph>
<glyph name="uni041C" format="1">
  <advance width="810"/>
  <unicode hex="041C"/>
  <outline>
    <contour>
      <point x="177" y="473" type="line"/>
      <point x="125" y="0" type="line"/>
      <point x="40" y="0" type="line"/>
      <point x="125" y="735" type="line"/>
      <point x="405" y="228" type="line"/>
      <point x="685" y="735" type="line"/>
      <point x="770" y="0" type="line"/>
      <point x="685" y="0" type="line"/>
      <point x="633" y="473" type="line"/>
      <point x="405" y="65" type="line"/>
    </contour>
  </outline>
</glyph>
<glyph name="uni041D" format="1">
  <advance width="715"/>
  <unicode hex="041D"/>
  <outline>
    <contour>
      <point x="127" y="340" type="line"/>
      <point x="127" y="420" type="line"/>
      <point x="607" y="420" type="line"/>
      <point x="607" y="340" type="line"/>
    </contour>
    <contour>
      <point x="550" y="700" type="line"/>
      <point x="635" y="700" type="line"/>
      <point x="635" y="0" type="line"/>
      <point x="550" y="0" type="line"/>
    </contour>
    <contour>
      <point x="80" y="700" type="line"/>
      <point x="165" y="700" type="line"/>
      <point x="165" y="0" type="line"/>
      <point x="80" y="0" type="line"/>
    </contour>
  </outline>
</glyph>
<glyph name="uni0428" format="1">
  <advance width="985"/>
  <unicode hex="0428"/>
  <outline>
    <contour>
      <point x="820" y="80" type="line"/>
      <point x="820" y="700" type="line"/>
      <point x="905" y="700" type="line"/>
      <point x="905" y="0" type="line"/>
      <point x="80" y="0" type="line"/>
      <point x="80" y="700" type="line"/>
      <point x="165" y="700" type="line"/>
      <point x="165" y="80" type="line"/>
      <point x="450" y="80" type="line"/>
      <point x="450" y="700" type="line"/>
      <point x="535" y="700" type="line"/>
      <point x="535" y="80" type="line"/>
    </contour>
  </outline>
</glyph>
<glyph name="uni042B" format="1">
  <advance width="765"/>
  <unicode hex="042B"/>
  <outline>
    <contour>
      <point x="600" y="700" type="line"/>
      <point x="685" y="700" type="line"/>
      <point x="685" y="0" type="line"/>
      <point x="600" y="0" type="line"/>
    </contour>
    <contour>
      <point x="80" y="700" type="line"/>
      <point x="165" y="700" type="line"/>
      <point x="165" y="0" type="line"/>
      <point x="80" y="0" type="line"/>
    </contour>
    <contour>
      <point x="127" y="340" type="line"/>
      <point x="127" y="420" type="line"/>
      <point x="270" y="420" type="line" smooth="yes"/>
      <point x="405" y="420"/>
      <point x="508" y="339"/>
      <point x="508" y="210" type="curve" smooth="yes"/>
      <point x="508" y="81"/>
      <point x="405" y="0"/>
      <point x="270" y="0" type="curve" smooth="yes"/>
      <point x="127" y="0" type="line"/>
      <point x="127" y="80" type="line"/>
      <point x="270" y="80" type="line" smooth="yes"/>
      <point x="360" y="80"/>
      <point x="423" y="124"/>
      <point x="423" y="210" type="curve" smooth="yes"/>
      <point x="423" y="296"/>
      <point x="360" y="340"/>
      <point x="270" y="340" type="curve" smooth="yes"/>
    </contour>
  </outline>
</glyph>
<glyph name="uni042E" format="1">
  <advance width="1030"/>
  <unicode hex="042E"/>
  <outline>
    <contour>
      <point x="127" y="340" type="line"/>
      <point x="127" y="420" type="line"/>
      <point x="347" y="420" type="line"/>
      <point x="347" y="340" type="line"/>
    </contour>
    <contour>
      <point x="80" y="700" type="line"/>
      <point x="165" y="700" type="line"/>
      <point x="165" y="0" type="line"/>
      <point x="80" y="0" type="line"/>
    </contour>
    <contour>
      <point x="370" y="350" type="curve" smooth="yes"/>
      <point x="370" y="192"/>
      <point x="482" y="75"/>
      <point x="635" y="75" type="curve" smooth="yes"/>
      <point x="788" y="75"/>
      <point x="900" y="192"/>
      <point x="900" y="350" type="curve" smooth="yes"/>
      <point x="900" y="508"/>
      <point x="788" y="625"/>
      <point x="635" y="625" type="curve" smooth="yes"/>
      <point x="482" y="625"/>
      <point x="370" y="508"/>
    </contour>
    <contour>
      <point x="280" y="350" type="curve" smooth="yes"/>
      <point x="280" y="554"/>
      <point x="431" y="710"/>
      <point x="635" y="710" type="curve" smooth="yes"/>
      <point x="839" y="710"/>
      <point x="990" y="554"/>
      <point x="990" y="350" type="curve" smooth="yes"/>
      <point x="990" y="146"/>
      <point x="839" y="-10"/>
      <point x="635" y="-10" type="curve" smooth="yes"/>
      <point x="431" y="-10"/>
      <point x="280" y="146"/>
    </contour>
  </outline>
</glyph>
<glyph name="uni0433" format="1">
  <advance width="330"/>
  <unicode hex="0433"/>
  <outline>
    <contour>
      <point x="80" y="460" type="line"/>
      <point x="325" y="460" type="line"/>
      <point x="325" y="385" type="line"/>
      <point x="160" y="385" type="line"/>
      <point x="160" y="0" type="line"/>
      <point x="80" y="0" type="line"/>
    </contour>
  </outline>
</glyph>
<glyph name="uni0439" format="1">
  <advance width="545"/>
  <unicode hex="0439"/>
  <outline>
    <contour>
      <point x="460" y="380" type="line"/>
      <point x="80" y="-35" type="line"/>
      <point x="85" y="80" type="line"/>
      <point x="465" y="495" type="line"/>
    </contour>
    <contour>
      <point x="160" y="460" type="line"/>
      <point x="160" y="75" type="line"/>
      <point x="80" y="-35" type="line"/>
      <point x="80" y="460" type="line"/>
    </contour>
    <contour>
      <point x="465" y="495" type="line"/>
      <point x="465" y="0" type="line"/>
      <point x="385" y="0" type="line"/>
      <point x="385" y="385" type="line"/>
    </contour>
    <contour>
      <point x="117" y="695" type="curve"/>
      <point x="188" y="695" type="line"/>
      <point x="188" y="669"/>
      <point x="205" y="620"/>
      <point x="275" y="620" type="curve" smooth="yes"/>
      <point x="345" y="620"/>
      <point x="362" y="669"/>
      <point x="362" y="695" type="curve"/>
      <point x="433" y="695" type="line"/>
      <point x="433" y="626"/>
      <point x="380" y="555"/>
      <point x="275" y="555" type="curve" smooth="yes"/>
      <point x="170" y="555"/>
      <point x="117" y="626"/>
    </contour>
  </outline>
</glyph>
<glyph name="uni043A" format="1">
  <advance width="440"/>
  <unicode hex="043A"/>
  <outline>
    <contour>
      <point x="70" y="460" type="line"/>
      <point x="150" y="460" type="line"/>
      <point x="150" y="0" type="line"/>
      <point x="70" y="0" type="line"/>
    </contour>
    <contour>
      <point x="320" y="460" type="line"/>
      <point x="420" y="460" type="line"/>
      <point x="220" y="270" type="line"/>
      <point x="440" y="0" type="line"/>
      <point x="340" y="0" type="line"/>
      <point x="120" y="270" type="line"/>
    </contour>
  </outline>
</glyph>
<glyph name="uni043C" format="1">
  <advance width="607"/>
  <unicode hex="043C"/>
  <outline>
    <contour>
      <point x="512" y="0" type="line"/>
      <point x="437" y="365" type="line"/>
      <point x="482" y="495" type="line"/>
      <point x="602" y="0" type="line"/>
    </contour>
    <contour>
      <point x="272" y="69" type="line"/>
      <point x="482" y="495" type="line"/>
      <point x="492" y="335" type="line"/>
      <point x="302" y="-31" type="line"/>
    </contour>
    <contour>
      <point x="302" y="-31" type="line"/>
      <point x="115" y="335" type="line"/>
      <point x="125" y="495" type="line"/>
      <point x="332" y="69" type="line"/>
    </contour>
    <contour>
      <point x="5" y="0" type="line"/>
      <point x="125" y="495" type="line"/>
      <point x="170" y="365" type="line"/>
      <point x="95" y="0" type="line"/>
    </contour>
  </outline>
</glyph>
<glyph name="uni043D" format="1">
  <advance width="565"/>
  <unicode hex="043D"/>
  <outline>
    <contour>
      <point x="122" y="205" type="line"/>
      <point x="122" y="280" type="line"/>
      <point x="462" y="280" type="line"/>
      <point x="462" y="205" type="line"/>
    </contour>
    <contour>
      <point x="410" y="460" type="line"/>
      <point x="490" y="460" type="line"/>
      <point x="490" y="0" type="line"/>
      <point x="410" y="0" type="line"/>
    </contour>
    <contour>
      <point x="75" y="460" type="line"/>
      <point x="155" y="460" type="line"/>
      <point x="155" y="0" type="line"/>
      <point x="75" y="0" type="line"/>
    </contour>
  </outline>
</glyph>
<glyph name="uni0440" format="1">
  <advance width="570"/>
  <unicode hex="0440"/>
  <outline>
    <contour>
      <point x="150" y="-220" type="line"/>
      <point x="70" y="-220" type="line"/>
      <point x="70" y="460" type="line"/>
      <point x="150" y="460" type="line"/>
    </contour>
    <contour>
      <point x="535" y="230" type="curve" smooth="yes"/>
      <point x="535" y="81"/>
      <point x="432" y="-10"/>
      <point x="307" y="-10" type="curve" smooth="yes"/>
      <point x="192" y="-10"/>
      <point x="114" y="81"/>
      <point x="114" y="230" type="curve" smooth="yes"/>
      <point x="114" y="379"/>
      <point x="192" y="470"/>
      <point x="307" y="470" type="curve" smooth="yes"/>
      <point x="432" y="470"/>
      <point x="535" y="379"/>
    </contour>
    <contour>
      <point x="454" y="230" type="curve" smooth="yes"/>
      <point x="454" y="336"/>
      <point x="382" y="395"/>
      <point x="297" y="395" type="curve" smooth="yes"/>
      <point x="227" y="395"/>
      <point x="150" y="336"/>
      <point x="150" y="230" type="curve" smooth="yes"/>
      <point x="150" y="124"/>
      <point x="227" y="65"/>
      <point x="297" y="65" type="curve" smooth="yes"/>
      <point x="382" y="65"/>
      <point x="454" y="124"/>
    </contour>
  </outline>
</glyph>
<glyph name="uni0445" format="1">
  <advance width="420"/>
  <unicode hex="0445"/>
  <outline>
    <contour>
      <point x="320" y="460" type="line"/>
      <point x="410" y="460" type="line"/>
      <point x="253" y="237" type="line"/>
      <point x="420" y="0" type="line"/>
      <point x="330" y="0" type="line"/>
      <point x="210" y="174" type="line"/>
      <point x="90" y="0" type="line"/>
      <point x="0" y="0" type="line"/>
      <point x="167" y="237" type="line"/>
      <point x="10" y="460" type="line"/>
      <point x="100" y="460" type="line"/>
      <point x="210" y="300" type="line"/>
    </contour>
  </outline>
</glyph>
<glyph name="uni044D" format="1">
  <advance width="478"/>
  <unicode hex="044D"/>
  <outline>
    <contour>
      <point x="137" y="267" type="line"/>
      <point x="437" y="267" type="line"/>
      <point x="367" y="193" type="line"/>
      <point x="137" y="193" type="line"/>
    </contour>
    <contour>
      <point x="367" y="230" type="curve" smooth="yes"/>
      <point x="367" y="326"/>
      <point x="300" y="395"/>
      <point x="210" y="395" type="curve" smooth="yes"/>
      <point x="136" y="395"/>
      <point x="71" y="356"/>
      <point x="50" y="311" type="curve"/>
      <point x="50" y="411" type="line"/>
      <point x="82" y="448"/>
      <point x="147" y="470"/>
      <point x="210" y="470" type="curve" smooth="yes"/>
      <point x="345" y="470"/>
      <point x="448" y="369"/>
      <point x="448" y="230" type="curve" smooth="yes"/>
      <point x="448" y="91"/>
      <point x="345" y="-10"/>
      <point x="210" y="-10" type="curve" smooth="yes"/>
      <point x="147" y="-10"/>
      <point x="82" y="11"/>
      <point x="50" y="49" type="curve"/>
      <point x="50" y="149" type="line"/>
      <point x="71" y="104"/>
      <point x="136" y="65"/>
      <point x="210" y="65" type="curve" smooth="yes"/>
      <point x="300" y="65"/>
      <point x="367" y="134"/>
    </contour>
  </outline>
</glyph>
<glyph name="uni044E" format="1">
  <advance width="746"/>
  <unicode hex="044E"/>
  <outline>
    <contour>
      <point x="122" y="205" type="line"/>
      <point x="122" y="280" type="line"/>
      <point x="292" y="280" type="line"/>
      <point x="292" y="205" type="line"/>
    </contour>
    <contour>
      <point x="75" y="460" type="line"/>
      <point x="155" y="460" type="line"/>
      <point x="155" y="0" type="line"/>
      <point x="75" y="0" type="line"/>
    </contour>
    <contour>
      <point x="235" y="230" type="curve" smooth="yes"/>
      <point x="235" y="369"/>
      <point x="338" y="470"/>
      <point x="473" y="470" type="curve" smooth="yes"/>
      <point x="608" y="470"/>
      <point x="711" y="369"/>
      <point x="711" y="230" type="curve" smooth="yes"/>
      <point x="711" y="91"/>
      <point x="608" y="-10"/>
      <point x="473" y="-10" type="curve" smooth="yes"/>
      <point x="338" y="-10"/>
      <point x="235" y="91"/>
    </contour>
    <contour>
      <point x="316" y="230" type="curve" smooth="yes"/>
      <point x="316" y="134"/>
      <point x="383" y="65"/>
      <point x="473" y="65" type="curve" smooth="yes"/>
      <point x="563" y="65"/>
      <point x="630" y="134"/>
      <point x="630" y="230" type="curve" smooth="yes"/>
      <point x="630" y="326"/>
      <point x="563" y="395"/>
      <point x="473" y="395" type="curve" smooth="yes"/>
      <point x="383" y="395"/>
      <point x="316" y="326"/>
    </contour>
  </outline>
</glyph>
<glyph name="uni044F" format="1">
  <advance width="483"/>
  <unicode hex="044F"/>
  <outline>
    <contour>
      <point x="141" y="0" type="line"/>
      <point x="53" y="0" type="line"/>
      <point x="223" y="240" type="line"/>
      <point x="311" y="240" type="line"/>
    </contour>
    <contour>
      <point x="433" y="0" type="line"/>
      <point x="353" y="0" type="line"/>
      <point x="353" y="460" type="line"/>
      <point x="433" y="460" type="line"/>
    </contour>
    <contour>
      <point x="386" y="254" type="line"/>
      <point x="386" y="184" type="line"/>
      <point x="243" y="184" type="line" smooth="yes"/>
      <point x="148" y="184"/>
      <point x="75" y="223"/>
      <point x="75" y="322" type="curve" smooth="yes"/>
      <point x="75" y="421"/>
      <point x="148" y="460"/>
      <point x="243" y="460" type="curve" smooth="yes"/>
      <point x="386" y="460" type="line"/>
      <point x="386" y="390" type="line"/>
      <point x="243" y="390" type="line" smooth="yes"/>
      <point x="185" y="390"/>
      <point x="155" y="368"/>
      <point x="155" y="322" type="curve" smooth="yes"/>
      <point x="155" y="276"/>
      <point x="185" y="254"/>
      <point x="243" y="254" type="curve" smooth="yes"/>
    </contour>
  </outline>
</glyph>
<glyph name="guilsinglleft" format="1">
  <advance width="350"/>
  <unicode hex="2039"/>
  <outline>
    <contour>
      <point x="130" y="259" type="line"/>
      <point x="280" y="65" type="line"/>
      <point x="230" y="20" type="line"/>
      <point x="40" y="255" type="line"/>
      <point x="230" y="490" type="line"/>
      <point x="280" y="445" type="line"/>
    </contour>
  </outline>
</glyph>
<glyph name="uni2076" format="1">
  <advance width="346"/>
  <unicode hex="2076"/>
  <outline>
    <contour>
      <point x="85" y="416" type="curve" smooth="yes"/>
      <point x="85" y="358"/>
      <point x="125" y="318"/>
      <point x="179" y="318" type="curve" smooth="yes"/>
      <point x="233" y="318"/>
      <point x="273" y="358"/>
      <point x="273" y="416" type="curve" smooth="yes"/>
      <point x="273" y="474"/>
      <point x="233" y="515"/>
      <point x="179" y="515" type="curve" smooth="yes"/>
      <point x="125" y="515"/>
      <point x="85" y="474"/>
    </contour>
    <contour>
      <point x="204" y="698" type="line"/>
      <point x="269" y="698" type="line"/>
      <point x="137" y="525" type="line"/>
      <point x="134" y="528" type="line"/>
      <point x="150" y="548"/>
      <point x="171" y="552"/>
      <point x="198" y="552" type="curve" smooth="yes"/>
      <point x="266" y="552"/>
      <point x="322" y="493"/>
      <point x="322" y="416" type="curve" smooth="yes"/>
      <point x="322" y="330"/>
      <point x="260" y="272"/>
      <point x="179" y="272" type="curve" smooth="yes"/>
      <point x="98" y="272"/>
      <point x="36" y="330"/>
      <point x="36" y="416" type="curve" smooth="yes"/>
      <point x="36" y="450"/>
      <point x="47" y="481"/>
      <point x="63" y="503" type="curve" smooth="yes"/>
    </contour>
  </outline>
</glyph>
<glyph name="threeeighths" format="1">
  <advance width="847"/>
  <unicode hex="215C"/>
  <outline>
    <contour>
      <point x="655" y="700" type="line"/>
      <point x="720" y="700" type="line"/>
      <point x="200" y="0" type="line"/>
      <point x="135" y="0" type="line"/>
    </contour>
    <contour>
      <point x="146" y="487" type="curve"/>
      <point x="146" y="520" type="line"/>
      <point x="200" y="520"/>
      <point x="231" y="553"/>
      <point x="231" y="593" type="curve" smooth="yes"/>
      <point x="231" y="633"/>
      <point x="209" y="660"/>
      <point x="167" y="660" type="curve" smooth="yes"/>
      <point x="128" y="660"/>
      <point x="97" y="633"/>
      <point x="97" y="596" type="curve"/>
      <point x="48" y="596" type="line"/>
      <point x="48" y="661"/>
      <point x="98" y="706"/>
      <point x="167" y="706" type="curve" smooth="yes"/>
      <point x="239" y="706"/>
      <point x="283" y="653"/>
      <point x="283" y="594" type="curve" smooth="yes"/>
      <point x="283" y="535"/>
      <point x="227" y="487"/>
    </contour>
    <contour>
      <point x="164" y="274" type="curve" smooth="yes"/>
      <point x="83" y="274"/>
      <point x="30" y="326"/>
      <point x="30" y="391" type="curve"/>
      <point x="82" y="391" type="line"/>
      <point x="82" y="351"/>
      <point x="116" y="322"/>
      <point x="164" y="322" type="curve" smooth="yes"/>
      <point x="212" y="322"/>
      <point x="243" y="351"/>
      <point x="243" y="397" type="curve" smooth="yes"/>
      <point x="243" y="449"/>
      <point x="200" y="475"/>
      <point x="146" y="475" type="curve"/>
      <point x="146" y="508" type="line"/>
      <point x="227" y="508"/>
      <point x="295" y="474"/>
      <point x="295" y="391" type="curve" smooth="yes"/>
      <point x="295" y="320"/>
      <point x="239" y="274"/>
    </contour>
    <contour>
      <point x="570" y="319" type="curve" smooth="yes"/>
      <point x="570" y="378"/>
      <point x="620" y="426"/>
      <point x="686" y="426" type="curve" smooth="yes"/>
      <point x="752" y="426"/>
      <point x="802" y="378"/>
      <point x="802" y="319" type="curve" smooth="yes"/>
      <point x="802" y="254"/>
      <point x="755" y="213"/>
      <point x="686" y="213" type="curve" smooth="yes"/>
      <point x="617" y="213"/>
      <point x="570" y="254"/>
    </contour>
    <contour>
      <point x="619" y="313" type="curve" smooth="yes"/>
      <point x="619" y="273"/>
      <point x="650" y="246"/>
      <point x="686" y="246" type="curve" smooth="yes"/>
      <point x="722" y="246"/>
      <point x="753" y="273"/>
      <point x="753" y="313" type="curve" smooth="yes"/>
      <point x="753" y="353"/>
      <point x="725" y="381"/>
      <point x="686" y="381" type="curve" smooth="yes"/>
      <point x="647" y="381"/>
      <point x="619" y="353"/>
    </contour>
    <contour>
      <point x="555" y="114" type="curve" smooth="yes"/>
      <point x="555" y="191"/>
      <point x="617" y="234"/>
      <point x="686" y="234" type="curve" smooth="yes"/>
      <point x="755" y="234"/>
      <point x="817" y="191"/>
      <point x="817" y="114" type="curve" smooth="yes"/>
      <point x="817" y="49"/>
      <point x="761" y="-6"/>
      <point x="686" y="-6" type="curve" smooth="yes"/>
      <point x="611" y="-6"/>
      <point x="555" y="49"/>
    </contour>
    <contour>
      <point x="604" y="120" type="curve" smooth="yes"/>
      <point x="604" y="68"/>
      <point x="644" y="39"/>
      <point x="686" y="39" type="curve" smooth="yes"/>
      <point x="728" y="39"/>
      <point x="768" y="68"/>
      <point x="768" y="120" type="curve" smooth="yes"/>
      <point x="768" y="166"/>
      <point x="728" y="201"/>
      <point x="686" y="201" type="curve" smooth="yes"/>
      <point x="644" y="201"/>
      <point x="604" y="166"/>
    </contour>
  </outline>
</glyph>
<glyph name="uniFF19" format="1">
  <advance width="580"/>
  <unicode hex="FF19"/>
  <outline>
    <contour>
      <point x="447" y="470" type="curve" smooth="yes"/>
      <point x="447" y="566"/>
      <point x="380" y="633"/>
      <point x="290" y="633" type="curve" smooth="yes"/>
      <point x="200" y="633"/>
      <point x="133" y="566"/>
      <point x="133" y="470" type="curve" smooth="yes"/>
      <point x="133" y="374"/>
      <point x="200" y="305"/>
      <point x="290" y="305" type="curve" smooth="yes"/>
      <point x="380" y="305"/>
      <point x="447" y="374"/>
    </contour>
    <contour>
      <point x="248" y="0" type="line"/>
      <point x="141" y="0" type="line"/>
      <point x="360" y="289" type="line"/>
      <point x="366" y="284" type="line"/>
      <point x="339" y="251"/>
      <point x="304" y="243"/>
      <point x="259" y="243" type="curve" smooth="yes"/>
      <point x="145" y="243"/>
      <point x="52" y="341"/>
      <point x="52" y="470" type="curve" smooth="yes"/>
      <point x="52" y="614"/>
      <point x="155" y="710"/>
      <point x="290" y="710" type="curve" smooth="yes"/>
      <point x="425" y="710"/>
      <point x="528" y="614"/>
      <point x="528" y="470" type="curve" smooth="yes"/>
      <point x="528" y="413"/>
      <point x="511" y="362"/>
      <point x="484" y="325" type="curve" smooth="yes"/>
    </contour>
  </outline>
</glyph>
<glyph name="agrave.alt" format="1">
  <advance width="570"/>
  <outline>
    <contour>
      <point x="425" y="460" type="line"/>
      <point x="500" y="460" type="line"/>
      <point x="500" y="0" type="line"/>
      <point x="425" y="0" type="line"/>
    </contour>
    <contour>
      <point x="35" y="230" type="curve" smooth="yes"/>
      <point x="35" y="379"/>
      <point x="138" y="470"/>
      <point x="263" y="470" type="curve" smooth="yes"/>
      <point x="378" y="470"/>
      <point x="456" y="379"/>
      <point x="456" y="230" type="curve" smooth="yes"/>
      <point x="456" y="81"/>
      <point x="378" y="-10"/>
      <point x="263" y="-10" type="curve" smooth="yes"/>
      <point x="138" y="-10"/>
      <point x="35" y="81"/>
    </contour>
    <contour>
      <point x="116" y="230" type="curve" smooth="yes"/>
      <point x="116" y="124"/>
      <point x="188" y="65"/>
      <point x="273" y="65" type="curve" smooth="yes"/>
      <point x="343" y="65"/>
      <point x="420" y="124"/>
      <point x="420" y="230" type="curve" smooth="yes"/>
      <point x="420" y="336"/>
      <point x="343" y="395"/>
      <point x="273" y="395" type="curve" smooth="yes"/>
      <point x="188" y="395"/>
      <point x="116" y="336"/>
    </contour>
    <contour>
      <point x="113" y="680" type="line"/>
      <point x="188" y="720" type="line"/>
      <point x="338" y="560" type="line"/>
      <point x="293" y="530" type="line"/>
    </contour>
  </outline>
</glyph>
